<svg xmlns="http://www.w3.org/2000/svg" viewBox="0 0 64 80" x="0px" y="0px"><title>_</title><g data-name="Motorcycle Delivery"><path d="M13.36694,13.3691V8.389h3.4v4.98005c-.69555-.41224-.80627-.50739-1.71.06994C14.36683,12.99823,14.2099,12.82948,13.36694,13.3691Z"/><path d="M52.0769,17.279v5.19a1.00091,1.00091,0,0,1-1.00164,1.00018L51.0569,23.469l-1.12006-.03v-6.9l.9-.23a.99754.99754,0,0,1,1.24006.97Z"/><path d="M29.85692,25.199h-7.4544a2.00216,2.00216,0,0,0,1.16437-1.81v-13a2.00588,2.00588,0,0,0-2-2h-2.8v5.66a.99454.99454,0,0,1-.47.84c-1.32163.85172-1.31307,1.00615-2.34.34-.70961.47308-.87869.6142-1.8,0-1.00408.66939-1.08474.46248-2.33-.34a.98512.98512,0,0,1-.46-.84V8.389h-2.8a1.99947,1.99947,0,0,0-2,1.99894V23.389a1.99942,1.99942,0,0,0,1.99886,2h3.06943a2.17018,2.17018,0,0,0,.88172,4.15h17.34a2.17,2.17,0,1,0,0-4.34006Z"/><path d="M52.88689,36.149a10.777,10.777,0,0,0-12.31,10.73h-12.14c1.51822-7.35728-4.97269-13.66536-13.68-11.72a15.40234,15.40234,0,0,0-8.12,4.82,13.98207,13.98207,0,0,1,5.11-8.52c.40641.09754,18.22664.2013,19.12006-.05,1.83136,6.04408-4.25623,6.25337.96,9.89,9.78368,2.652,14.35791-7.84592,10.21-16.05l7.31.18A50.091,50.091,0,0,1,52.88689,36.149Z"/><path d="M15.18688,37.109A14.21617,14.21617,0,0,0,4.81175,47.32539,1.00721,1.00721,0,0,0,5.77709,48.609H25.68688C28.74607,43.91156,24.80985,34.97249,15.18688,37.109Zm-1.55,3.74a10.04851,10.04851,0,0,0-3.95,3.51.99847.99847,0,0,1-1.66-1.11,12.00176,12.00176,0,0,1,4.74-4.2.99962.99962,0,0,1,.87,1.8Zm3.6-.88a6.10114,6.10114,0,0,0-.73.05h-.1a.99875.99875,0,0,1-.15126-1.98589,7.11793,7.11793,0,0,1,.95125-.06416,1.00016,1.00016,0,0,1,.03007,2.00005Z"/><path d="M59.12888,42.81779a1.008,1.008,0,0,1-.59991,1.39284c-1.07673.3473-14.53508,4.71754-14.53508,4.71754a.99585.99585,0,0,1-1.29226-.74872,8.74584,8.74584,0,0,1,16.42725-5.36166Z"/><path d="M52.06688,50.109a1.49233,1.49233,0,0,1-1.47-1.22l2.82-.91a1.49174,1.49174,0,0,1-1.35,2.13Z"/><path d="M58.65691,46.279l-3.33,1.08a3.23609,3.23609,0,0,1,.24,1.25,3.4987,3.4987,0,0,1-6.88.9l-3.33,1.08a6.99762,6.99762,0,0,0,13.71-1.98A6.67831,6.67831,0,0,0,58.65691,46.279Z"/><path d="M17.92693,50.609a3.47656,3.47656,0,0,1-5.72,0h-3.85a6.99568,6.99568,0,0,0,13.41,0Z"/><path d="M47.93688,17.039l-6.51,1.64a.99478.99478,0,0,0-.76.97v1.89454l-3.93591.95678a1,1,0,1,0,.47266,1.94336h0l4.91-1.1936,5.82318.13891Z"/></g></svg>